<?xml version="1.0" encoding="UTF-8" standalone="no"?>
<!-- Created with Inkscape (http://www.inkscape.org/) -->

<svg
   version="1.1"
   id="svg2"
   width="4000"
   height="4000"
   viewBox="0 0 4000 4000"
   xmlns="http://www.w3.org/2000/svg"
   xmlns:svg="http://www.w3.org/2000/svg">
  <defs
     id="defs6" />
  <g
     id="g8">
    <path
       style="fill:#000000;stroke-width:1.33333"
       d="m 1811.9221,3436.0691 c -20.288,-6.1563 -20.3289,-19.9695 -0.112,-37.9424 3.999,-3.5551 3.8174,-3.844 -5.0889,-8.101 -8.9432,-4.2744 -14.8891,-14.8718 -15.2277,-27.1405 -0.3082,-11.1617 10.1002,-15.5799 19.9737,-8.4784 28.9075,20.7919 27.3161,20.8721 109.684,-5.5309 41.8916,-13.4286 76.4973,-24.7462 76.9016,-25.1504 0.4043,-0.4043 -9.342,-6.8952 -21.6585,-14.4242 -22.3938,-13.6892 -22.3938,-13.6892 -162.0442,-21.0506 -139.6504,-7.3616 -139.6504,-7.3616 -162.9937,8.1938 -23.3433,15.5555 -23.3433,15.5555 -35.0163,15.5262 -29.1182,-0.073 -38.3706,-21.6702 -15.102,-35.2508 3.7194,-2.1707 6.7616,-4.2707 6.7607,-4.6667 -9e-4,-0.3959 -45.7443,-5.9505 -101.6517,-12.3436 -101.65,-11.6237 -101.65,-11.6237 -129.6108,6.6495 -30.719,20.0756 -42.7148,23.5525 -53.6358,15.5461 -11.1078,-8.1435 -9.8812,-27.316 2.1988,-34.3684 2.3205,-1.3548 3.9341,-2.7484 3.5856,-3.0969 -0.3485,-0.3484 -62.04,-5.5752 -137.0923,-11.6151 -136.4593,-10.9816 -136.4593,-10.9816 -168.4593,-28.0448 -44.63569,-23.8008 -56.98985,-36.6405 -49.39203,-51.3331 5.1391,-9.938 20.63994,-10.4385 49.35713,-1.5937 19.6849,6.0629 19.7623,6.0587 14.3784,-0.7917 -15.137,-19.2595 -9.9105,-35.2242 10.9048,-33.3098 16.939,1.5579 16.5169,1.2224 33.1315,26.331 9.3208,14.086 15.958,22.8288 17.6202,23.21 5.033,1.1544 163.6684,19.4834 164.1819,18.9698 0.2823,-0.2822 -0.3931,-3.0822 -1.501,-6.2221 -7.2353,-20.5072 3.1249,-33.2108 20.6145,-25.2773 11.2276,5.0929 14.0147,8.2993 24.1855,27.8246 9.698,18.6178 9.698,18.6178 16.4419,19.38 9.7875,1.1063 155.8664,12.699 160.019,12.699 3.504,0 3.504,0 0.2452,-5.6667 -9.4386,-16.4124 -2.4144,-27.6117 16.2264,-25.8711 10.3056,0.9624 8.6892,-0.3218 29.1482,23.1592 9.1268,10.4748 17.0092,19.0486 17.5163,19.0527 0.5072,0 57.8777,4.4987 127.49,9.9877 69.6124,5.4891 126.7656,9.7824 127.0072,9.541 0.4548,-0.4548 -66.7924,-24.6295 -177.5751,-63.8366 -51.9856,-18.3981 -84.5428,-28.8921 -90.0246,-29.0172 -0.3803,-0.013 0.2677,13.0343 1.4398,28.9843 1.1723,15.95 2.0011,29.1824 1.8418,29.4052 -0.1594,0.2229 -8.1916,-14.2976 -17.8498,-32.2677 -9.858,-18.3423 -18.55,-32.9847 -19.8169,-33.3836 -19.0884,-6.0106 -187.574,-38.3814 -242.9236,-46.6726 -53.55,-8.0214 -54.9487,-8.0681 -63.4466,-2.1153 -19.0572,13.3496 -38.4736,14.3259 -52.4159,2.6357 -3.1958,-2.6796 -3.1958,-2.6796 -0.1009,-5.974 3.0949,-3.2944 3.0949,-3.2944 -8.8574,-3.2944 -18.9593,0 -34.7201,-5.5854 -37.1229,-13.1558 -1.8253,-5.751 -51.7838,-7.393 -69.3897,-2.2807 -28.03505,8.1405 -41.77344,18.1245 -53.07787,38.5729 -17.98373,32.5304 -44.4886,35.1372 -47.25332,4.6475 -0.3882,-4.2812 -1.26374,-7.7839 -1.94566,-7.7839 -0.68192,0 -7.04859,1.4434 -14.14815,3.2075 -35.38807,8.7931 -87.21639,18.1259 -100.65959,18.1259 -24.15124,0 -35.34777,-15.1812 -24.65425,-33.4283 6.07813,-10.3716 7.76788,-11.2949 15.33065,-8.3773 20.41251,7.8749 67.9606,-0.2552 124.42991,-21.276 30.72068,-11.4359 74.70492,-30.6347 74.57484,-32.5515 -0.0385,-0.5684 -14.11301,-10.8896 -31.27651,-22.9359 -35.86122,-25.1693 -43.31998,-33.2252 -43.31998,-46.7877 0,-16.3195 23.25089,-23.7789 39.41576,-12.6459 5.15677,3.5516 7.89029,4.7511 8.26512,3.6266 0.79136,-2.3742 7.53728,-5.624 11.67389,-5.624 9.376,0 19.07986,9.1704 27.94626,26.4097 22.4979,43.7436 55.9356,64.1139 96.8264,58.9865 13.1402,-1.6476 13.5378,-1.9341 8.4871,-6.1178 -60.3149,-49.9623 -257.05447,-182.412 -482.61453,-324.9078 C 602,2685.664 602,2685.664 547.89165,2679.2553 c -54.10834,-6.4086 -54.10834,-6.4086 -72,1.3084 -28.31349,12.2122 -41.77024,13.7975 -49.2221,5.7988 -5.46786,-5.8689 -2.79355,-19.3444 6.2266,-31.3748 2.35561,-3.1417 2.77513,-4.4925 1.51437,-4.8761 -61.48447,-18.7073 -142.51648,-67.06 -166.13676,-99.1353 -27.52284,-37.375 -34.27977,-53.3959 -26.38885,-62.5686 8.40165,-9.7665 32.90613,2.0183 50.67936,24.373 37.06006,46.6129 122.43681,85.9094 237.34406,109.2426 16.08292,3.2658 29.41383,5.7656 29.62424,5.5552 0.21043,-0.2104 -25.0321,-33.3517 -56.0945,-73.6472 -56.4771,-73.2646 -56.4771,-73.2646 -59.23851,-85.9313 -6.81985,-31.2829 -3.81519,-44 10.39587,-44 7.70905,0 14.83878,5.876 36.72037,30.2629 23.30244,25.9704 22.01753,25.0436 22.01753,15.8814 0,-31.5392 18.55383,-43.2647 38.25911,-24.1787 5.38647,5.2172 7.07476,7.7883 7.07647,10.7765 10e-4,3.2994 1.88832,39.263 4.56968,87.1178 1.00265,17.8944 14.19154,35.0708 68.70252,89.4734 52.03922,51.9359 39.59834,42.984 166.74433,119.981 61.95635,37.5194 116.24789,71.0064 120.64789,74.4153 102.48547,79.4019 195.90057,143.5047 246.45207,169.1189 24.1033,12.213 24.575,12.0402 6.5026,-2.3832 -35.3336,-28.1992 -122.7,-112.7212 -181.02576,-175.132 -21.18304,-22.6666 -21.18304,-22.6666 -32.55597,-25.6716 -37.56832,-9.9261 -51.73779,-29.5782 -33.32215,-46.2157 7.92788,-7.1623 14.99629,1.6228 -88.09155,-109.4865 -6.12885,-6.6058 -6.24796,-6.906 -7.87924,-19.866 -4.57882,-36.3774 12.28099,-49.9843 39.08396,-31.5434 5.80134,3.9915 5.80134,3.9915 10.08684,-2.6222 18.03236,-27.8287 45.49379,-8.3395 38.73347,27.4888 -1.78877,9.4802 0.14536,19.6901 5.85288,30.8962 4.75919,9.344 156.99342,187.5674 158.36672,185.4028 0.5988,-0.9436 1.0978,-3.5568 1.1091,-5.807 0.116,-23.2362 17.7035,-38.1903 35.3537,-30.0602 12.5129,5.7639 11.9515,3.7816 13.8364,48.8555 1.846,44.1429 2.4477,47.4983 10.8488,60.4963 27.1427,41.9949 105.9262,90.1001 219.9333,134.2908 25.3358,9.8205 23.4338,9.5325 33.405,5.0577 9.1193,-4.0925 9.28,-4.5447 9.373,-26.3821 0.063,-14.8334 0.063,-14.8334 6.2128,0.5 3.3824,8.4333 6.2744,15.5037 6.4267,15.712 0.1523,0.2082 8.3065,-3.3143 18.1204,-7.8279 31.3513,-14.4191 53.1488,-11.3444 53.172,7.5 0.015,11.9033 4.8512,15.8701 20.6716,16.9545 8.0667,0.553 15.5249,0.8527 16.574,0.6663 1.0491,-0.1865 -8.5509,-8.7013 -21.3333,-18.9217 -26.7848,-21.4166 -60.7711,-49.4854 -90.931,-75.0986 -21.0236,-17.8542 -21.0236,-17.8542 -56.6666,-20.3838 -67.2943,-4.7758 -87.3118,-9.0379 -97.6274,-20.7867 -4.566,-5.2004 -5.4744,-14.4304 -2.0157,-20.4808 1.048,-1.8333 1.9268,-5.2168 1.9527,-7.5189 0.1266,-11.2102 6.0349,-12.6352 47.8979,-11.5522 21.4041,0.5536 32.3405,0.387 31.9999,-0.4877 -0.2844,-0.7309 -22.1172,-29.0396 -48.5172,-62.9083 -52.7895,-67.7238 -53.7519,-69.2806 -54.9365,-88.8662 -0.904,-14.9466 7.0688,-23.4923 19.9895,-21.4263 10.3648,1.6575 14.7075,5.2075 29.0055,23.7109 7.5289,9.7435 14.1763,18.2658 14.7718,18.9386 0.6196,0.7 3.9369,-1.4467 7.7561,-5.0191 13.9321,-13.0319 26.2804,-12.0368 33.0088,2.66 3.022,6.6009 3.5144,10.1201 4.8834,34.9052 1.4434,26.1336 1.7084,27.8801 5.1037,33.6565 16.9217,28.7879 71.8729,83.1742 133.6671,132.293 25.1112,19.9604 55.408,42.763 55.9474,42.1088 0.2242,-0.2719 2.0304,-4.0943 4.014,-8.4943 10.235,-22.7028 34.793,-28.5899 44.9968,-10.7868 4.2616,7.4352 4.2503,30.8931 -0.025,51.0855 -2.9987,14.1644 0.6955,22.873 9.7556,22.9985 13.2403,0.1835 41.8093,-22.2535 50.6245,-39.7583 6.2236,-12.3581 11.8358,-15.536 27.452,-15.5441 10.015,0 10.015,0 52.1087,-26.9801 23.1515,-14.8363 43.0668,-28.0502 44.256,-29.3643 3.5065,-3.8747 8.972,-16.9193 10.7585,-25.6779 5.0322,-24.6692 34.6787,-34.7684 48.3322,-16.4642 5.0129,6.7204 5.6406,7.1138 11.3892,7.138 9.0041,0.037 21.8433,4.9504 26.3488,10.0817 12.2253,13.924 -0.2871,30.2191 -38.978,50.7611 -21.3044,11.3112 -25.1462,15.1468 -26.2959,26.2544 -2.1173,20.4569 -11.184,24.9657 -43.9971,21.879 -3.2433,-0.305 -79.9732,45.4188 -86.0896,51.3014 -7.9525,7.6484 -12.16,17.184 -10.0982,22.8856 0.871,2.4089 1.5886,6.1372 1.5946,8.2852 0.013,3.2089 1.0195,4.4618 5.6667,7.0269 42.9788,23.7212 71.3153,37.5404 118.5753,57.8265 25.7471,11.0519 25.7471,11.0519 43.7471,11.5098 54.1988,1.3789 116.5403,-8.3258 134.4259,-20.926 1.9657,-1.3848 11.6741,-4.7575 21.5741,-7.4947 61.8977,-17.1137 182.9888,-57.3469 194.6512,-64.674 2.6675,-1.6759 -3.9188,-8.5389 -13.6233,-14.196 -3.8654,-2.2532 -12.8255,-7.4839 -19.9114,-11.6237 -27.675,-16.1687 -38.2949,-32.2388 -29.062,-43.9766 2.7211,-3.4594 2.7211,-3.4594 -0.9237,-8.967 -11.3096,-17.0902 -1.1016,-36.7395 25.9471,-49.9451 7.9488,-3.8808 10.9028,-6.0091 10.9109,-7.8612 0.056,-12.7223 43.8961,-28.5256 113.0175,-40.7404 61.3765,-10.8461 122.1349,-56.4616 196.4481,-147.4871 5.4335,-6.6552 16.4789,-19.48 24.5456,-28.4994 59.4297,-66.4488 93.7613,-123.198 87.624,-144.8395 -0.8153,-2.8749 -2.8175,-9.4272 -4.4492,-14.5605 -4.7831,-15.0474 -4.4779,-56.0975 0.5551,-74.6667 6.2928,-23.2168 19.2605,-46.7344 37.3829,-67.7956 6.4784,-7.5291 6.6508,-7.9395 5.0393,-12 -30.3792,-76.5496 -48.2029,-174.5487 -38.7161,-212.8711 8.4631,-34.187 -17.3804,-86.4245 -55.2248,-111.6258 -12.7283,-8.476 -27.4528,-27.11 -66.1451,-83.7075 -9.0241,-13.2 -17.1553,-24.8033 -18.0694,-25.7851 -1.3786,-1.4805 -3.8416,-0.9688 -14.4379,3 -23.8648,8.9384 -28.3651,7.0295 -60.3016,-25.5796 -27.1861,-27.7584 -15.296,-29.2153 -110.1857,13.5008 -49.8432,22.4378 -55.3239,21.9651 -79.1444,-6.8253 -19.7018,-23.812 -18.5138,-11.7515 -19.2604,-195.5425 -0.5523,-135.9508 -0.9852,-164.9022 -2.5234,-168.7683 -1.0212,-2.5667 -6.8612,-15.302 -12.9777,-28.3008 -12.2427,-26.0181 -12.6452,-23.1805 5.5011,-38.7828 4,-3.4392 4,-3.4392 -12.6839,-19.8445 -70.3717,-69.1966 -152.6741,-105.1331 -251.3161,-109.735 -37.965,-1.771 -210.3078,-35.1148 -217.2226,-42.0266 -2.8212,-2.82 33.1224,-15.9576 63.8892,-23.3519 55.3496,-13.3025 118.3715,-18.9034 198.1372,-17.609 51.6075,0.8375 51.459,0.9893 32.9552,-33.6827 -28.9624,-54.2694 -83.0224,-75.7733 -197.759,-78.6641 -27.1334,-0.6836 -54.8834,-1.6001 -61.6667,-2.0365 -14.2995,-0.9202 -14.3551,-0.8785 -6,4.4985 72.3017,46.5309 26.3116,160.4246 -56.8625,140.8189 -84.4935,-19.917 -77.2867,-144.8533 8.8453,-153.3405 9.0972,-0.8964 9.3976,-1.045 11.6471,-5.7623 16.7921,-35.2133 69.4301,-59.843 139.9358,-65.4767 19.6663,-1.5715 115.2708,3.4166 218.9891,11.4256 26.8883,2.0763 26.8883,2.0763 41.8025,-2.7452 79.0246,-25.5469 176.2382,-29.48 237.3094,-9.6011 6,1.953 6,1.953 -1.5576,2.0849 -14.0615,0.2452 -12.7584,1.8504 3.9885,4.9131 21.0165,3.8435 38.5507,8.8703 50.2357,14.4019 9.3334,4.4183 9.3334,4.4183 -0.4468,5.4309 -9.7802,1.0127 -9.7802,1.0127 -1.3042,3.866 28.4317,9.5711 62.9861,43.0121 88.067,85.2296 2.9555,4.9748 5.5811,8.8376 5.8347,8.5841 0.2536,-0.2536 10.3059,-36.1235 22.3384,-79.7108 12.0327,-43.5873 22.9461,-81.4789 24.2524,-84.2034 6.9831,-14.5654 -12.3161,-37.5889 -55.8517,-66.6298 -54.38,-36.27471 -80.7734,-105.09197 -67.0712,-174.87979 6.2942,-32.05822 10.0962,-35.66774 23.9565,-22.74382 33.0063,30.77644 62.0673,49.75893 76.3056,49.84216 5.414,0.0316 5.414,0.0316 3.1473,-16.30168 -15.7237,-113.30571 -2.4282,-201.02579 34.587,-228.1975 6.1113,-4.48614 6.5278,-5.22641 10.7281,-19.06825 19.1503,-63.11016 44.0757,-112.0794 61.6829,-121.18448 3.922,-2.02815 3.922,-2.02815 3.1986,2.37771 -10.2372,62.3392 -10.905,158.59681 -1.1748,169.3485 9.8845,10.92219 30.9369,-21.47713 59.772,-91.98764 6.4601,-15.79717 11.4321,-20.71173 20.2952,-20.06097 5.9829,0.43929 5.9829,0.43929 26.0244,-28.89404 122.8573,-179.81717 217.6173,-289.56763 258.4804,-299.37053 12.212,-2.92963 12.5428,-2.5343 14.34,17.13988 7.9766,87.32097 33.2237,99.33665 67.4754,32.11313 52.3,-102.646 107.4638,-165.449819 151.2798,-172.231904 12.0573,-1.866308 11.8274,-3.085883 3.4214,18.155676 -56.9472,143.902778 -75.7528,261.450358 -46.7477,292.204748 11.9612,12.68255 27.5573,0.89736 52.6643,-39.79569 C 3212.6164,305.86816 3285.7432,198.30243 3313.21,162 c 20.6091,-27.23873 38.79,-45.33305 38.79,-38.60523 0,0.40045 2.676,19.45044 5.9465,42.33332 15.7063,109.88951 15.7719,121.17976 0.8687,149.60524 -67.1493,128.07634 -136.9873,223.18747 -210.1485,286.19734 -35.048,30.18493 -60.0554,58.28072 -55.7268,62.6092 7.5356,7.53556 122.3096,-59.35 169.8872,-99.0033 125.5481,-104.63718 213.1617,-203.55546 235.9289,-266.37056 4.6008,-12.69357 5.6728,-7.12901 5.7599,29.90066 0.3,127.42082 -82.523,273.48005 -230.6842,406.81452 -82.759,74.47722 -66.6957,90.52364 49.286,49.23404 C 3466.2141,733.77277 3636,656.22915 3636,641.81741 c 0,-1.08613 0.5431,-1.63914 1.2068,-1.22892 3.2149,1.98694 -2.3408,37.1048 -9.1912,58.09799 -25.1812,77.16821 -91.0833,138.51269 -194.0156,180.59785 -77.9033,31.85178 -105.2293,58.48982 -75.1128,73.22186 26.8552,13.1367 48.9069,14.86852 186.0709,14.61296 114.9582,-0.21418 114.9582,-0.21418 114.1487,6 -5.8131,44.62185 -40.6656,91.02315 -80.9347,107.75295 -64.1706,26.6599 -61.1553,72.753 8.2087,125.4799 16.9836,12.91 16.7855,12.3216 10.8781,32.3147 -5.8097,19.6621 -25.5932,45.2122 -43.3609,56 -29.6827,18.022 -34.8195,36.3012 -19.7291,70.2053 0.3916,0.88 -2.9225,3.4292 -7.7421,5.9551 -34.1735,17.9104 -46.5967,51.0878 -34.2823,91.5556 0.306,1.0057 -4.9413,5.1446 -12.6782,10 -21.6494,13.5861 -24.1191,21.7937 -13.0647,43.417 16.574,32.4206 12.1523,65.5336 -8.7509,65.5336 -7.6816,0 -8.4966,0.2499 -7.6116,2.3334 11.6413,27.4092 5.5353,42.4365 -13.696,33.7069 -10.4723,-4.7537 -11.3487,10.6864 -2.3436,41.2931 4.7145,16.024 4.8806,17.2836 4.3084,32.6666 -1.105,29.7074 -8.337,37.2339 -26.0431,27.1034 -6.2637,-3.5838 -7.2416,-3.8383 -6.4004,-1.6667 10.9073,28.1617 2.9173,42.4276 -17.8644,31.8967 -12.7212,-6.4463 -14.7593,-3.2146 -9.2408,14.6525 4.1121,13.3132 1.7872,32.9457 -4.4157,37.2905 -2.6995,1.8907 -2.7346,2.3354 -1.1303,14.3375 2.8384,21.2333 3.4152,71.9969 0.9497,83.5761 -4.4496,20.898 -13.3388,28.8652 -21.7304,19.4767 -40.96,-45.8261 -48.3246,-40.0721 -29.2737,22.8717 6.3077,20.841 7.7604,54.949 2.7527,64.6328 -3.3578,6.4932 -5.1703,6.052 -14.0256,-3.4144 -17.3388,-18.5352 -31.8908,-26.6777 -37.5548,-21.0137 -8.9423,8.9423 -5.2295,86.4268 5.1873,108.2569 18.6459,39.0758 16.0495,62.0134 -7.5716,66.8922 -7.9468,1.6414 -7.9468,1.6414 -7.9468,9.4272 0,23.084 -5.448,49.2498 -11.5183,55.3201 -3.9398,3.9399 -3.8166,4.8869 2.9087,22.3605 16.4621,42.7707 38.6097,64.0522 63.788,61.2931 61.6485,-6.7556 146.2753,21.1899 191.7901,63.3328 10.3018,9.5387 10.3018,9.5387 14.6667,4.556 18.3419,-20.9383 37.4499,-15.4629 35.3053,10.1167 -2.096,25.0013 -4.8956,31.5062 -23.7308,55.1384 -19.9685,25.0541 -19.019,22.6013 -10.4332,26.952 12.5568,6.363 45.7524,26.2289 65.016,38.9086 19.1258,12.5892 19.1258,12.5892 26,9.6448 35.0304,-15.0041 68.1962,-36.9102 85.1287,-56.2277 24.992,-28.5123 46.3721,-39.8759 56.3156,-29.9324 7.1765,7.1765 3.254,18.992 -15.3407,46.2095 -18.4605,27.0213 -38.5462,44.1316 -83.5932,71.2105 -8.3636,5.0277 -8.3636,5.0277 1.5411,15.5565 23.9749,25.4855 32.2421,48.3927 24.0264,66.5738 -2.7109,5.9993 -2.7109,5.9993 11.8757,22 46.272,50.7576 69.2635,88.7354 69.5434,114.8738 0.116,10.8732 0.116,10.8732 45.6473,57.9884 25.042,25.9134 45.3349,47.3112 45.0952,47.551 -0.2396,0.2396 -10.5449,-2.5451 -22.9005,-6.1884 -28.0646,-8.2752 -29.8603,-8.6414 -34.2332,-6.9787 -9.0848,3.454 -8.396,4.228 73.1017,82.1383 71.0011,67.8757 77.3295,74.5824 85.3588,90.4622 12.9579,25.6272 -12.9372,19.6608 -59.3588,-13.6766 -142.7575,-102.5207 -264.0108,-207.0606 -289.7124,-249.7784 -4.5781,-7.6092 -4.5781,-7.6092 -8.2173,1.6666 -4.6032,11.7328 -3.054,12.6635 -19.4036,-11.6568 -29.0678,-43.2389 -26.0883,-40.389 -32.2108,-30.8073 -10.995,17.2071 -25.3194,29.0733 -35.096,29.0733 -12.6152,0 -113.7932,-58.8113 -158.7526,-92.2774 -11.8598,-8.828 -13.691,-9.7788 -16,-8.307 -1.434,0.9142 -27.2073,16.8276 -57.274,35.3632 -184.8077,113.9311 -342.7641,217.4368 -397.5349,260.497 -11.7984,9.2757 -11.7984,9.2757 -7.1317,10.2522 45.6989,9.5624 83.9101,-11.0862 107.6918,-58.1946 10.1826,-20.1702 25.6282,-28.782 35.9874,-20.0654 3.8837,3.268 3.8837,3.268 10.7164,-1.3333 16.1921,-10.9045 38.9377,-3.1135 38.9377,13.3373 0,14.0184 -6.7209,21.0962 -44.3721,46.728 -17.2354,11.7334 -31.1188,21.6995 -30.8522,22.1471 0.8918,1.4969 43.7236,20.9529 65.2663,29.6467 64.2259,25.9189 110.5837,35.1841 134.0996,26.8016 7.1712,-2.5562 13.1123,2.8012 16.6673,15.03 4.8752,16.77 -5.0789,26.9512 -26.4094,27.012 -12.7847,0.036 -100.1211,-17.7536 -114.7882,-23.3819 -1.4621,-0.5611 -2.0577,1.0669 -2.6072,7.1259 -2.881,31.773 -29.4993,28.2821 -48.2412,-6.327 -14.6893,-27.1254 -42.2958,-41.3628 -80.236,-41.3794 -33.5088,-0.015 -70.3546,3.9969 -85.4542,9.304 -9.7548,3.4285 -9.6851,3.2654 -3.9195,9.1698 4.9799,5.0999 4.9799,5.0999 0.58,8.4344 -16.1773,12.2602 -36.2385,8.7659 -58.3999,-10.172 -8.6666,-7.406 -8.6666,-7.406 -18.6666,-6.4086 -16.6192,1.6577 -79.328,1.1054 -94.6667,-0.8336 -22.7172,-2.8719 -20.5936,-3.3126 -93.6667,19.4366 -37,11.5188 -37,11.5188 -37.0465,18.9567 -0.1705,27.2723 -10.6365,49.1895 -29.2868,61.3305 -8.6531,5.633 -10.3355,11.9142 -2.4553,9.1671 7.3558,-2.5643 18.454,-0.2997 33.8473,6.9064 10.6233,4.9732 15.8976,6.706 20.4604,6.7224 8.0703,0.029 97.2915,-5.3739 101.0611,-6.1196 2.1749,-0.4303 5.3234,-5.1379 12.4214,-18.5721 6.2796,-11.8852 10.9496,-19.0762 13.7534,-21.1774 24.081,-18.0482 40.5657,-6.8485 30.7729,20.9071 -1.7977,5.0952 -1.7977,5.0952 7.1705,4.1992 171.374,-17.1227 156.935,-13.9629 173.31,-37.9259 16.5648,-24.2405 17.3711,-24.9088 31.6654,-26.2436 23.5576,-2.1998 29.2705,12.7587 12.7749,33.4487 -5.4192,6.7972 -6.1849,6.7607 15.2509,0.7271 33.6622,-9.475 49.8528,-6.6196 49.9375,8.8068 0.077,14.0552 -10.5076,23.1962 -50.6899,43.7765 -32.7196,16.7581 -32.7196,16.7581 -73.18,19.4124 -22.2532,1.4599 -40.6904,2.8841 -40.9714,3.1652 -0.2811,0.2811 5.65,0.9269 13.18,1.4353 20.7249,1.3991 22.1214,1.8766 27.2484,9.3162 9.0528,13.1365 4.4238,24.9476 -11.9491,30.4884 -2.6823,0.9078 -20.6687,1.5174 -48.2751,1.6364 -68.875,0.2965 -137.6208,9.7709 -306,42.1718 -128.6886,24.7634 -351.2888,73.5268 -398.5738,87.3127 -11.4178,3.3289 -21.8182,6.3568 -23.1122,6.7287 -3.4772,0.9993 -2.3121,2.0277 11.9194,10.5202 12.9722,7.7414 12.9722,7.7414 30.3694,3.335 9.5684,-2.4236 19.904,-5.8235 22.968,-7.5555 14.3064,-8.0869 25.7623,-0.4811 21.9684,14.5857 -3.6186,14.3711 -6.016,17.5319 -16.8957,22.2755 -5.5364,2.4139 -9.896,4.8623 -9.6881,5.4409 0.2078,0.5787 5.328,6.4419 11.378,13.0294 14.5049,15.7932 14.5693,24.0249 0.251,32.0722 -12.4761,7.012 -20.9721,4.9838 -34.3076,-8.1904 -10.6345,-10.5057 -97.2284,-66.3622 -102.8808,-66.3622 -0.6965,0 -41.9456,11.7604 -91.6645,26.1342 -102.4075,29.6063 -90.4649,24.5302 -116.5343,49.5324 -11.9736,11.4835 -13.9888,12.3512 -22.6084,9.7358 z m 252.7446,-133.4024 c 1.933,-0.8307 0.6492,-1.1662 -4.6667,-1.2192 -5.2007,-0.052 -6.7517,0.3025 -5.3333,1.2192 2.4092,1.5569 6.3768,1.5569 10,0 z m 145.9157,-54.0732 c 60.4,-8.0831 141.9915,-20.8394 146.9613,-22.9764 1.651,-0.7099 -3.2657,-4.7126 -19.4281,-15.8163 -21.6385,-14.8659 -21.6385,-14.8659 -200.2104,-8.4384 -98.2145,3.5352 -178.8719,6.5236 -179.2385,6.6409 -0.8944,0.2864 14.8908,5.3498 39.7508,12.7506 11.6962,3.4818 23.0845,7.7696 26.6613,10.038 16.5164,10.4744 56.6127,18.5189 105.4476,21.156 35.1893,1.9001 43.3464,1.5584 80.056,-3.3544 z m 222.9935,-37.9215 c 37.1422,-8.3144 39.7958,-9.0687 32.4241,-9.2163 -2.9333,-0.059 -19.016,-0.7777 -35.7392,-1.5977 -33.9251,-1.6633 -32.394,-1.8712 -29.4653,3.9995 1.4244,2.8554 1.8521,5.8264 1.2786,8.883 -1.0649,5.6768 -3.9422,5.8658 31.5018,-2.0685 z m 336.4825,-53.058 c -0.3332,-0.3333 -5.8828,-0.099 -12.3321,0.5219 -11.7263,1.1278 -11.7263,1.1278 -3.7263,1.8293 7.2673,0.6372 17.5424,-0.8672 16.0584,-2.3512 z m -525.2173,-3.5773 c 77.3024,-4.6766 74.5252,-4.387 71.7276,-7.4783 -1.2591,-1.3913 -9.2522,-6.8133 -17.7623,-12.0491 -15.4731,-9.5193 -15.4731,-9.5193 -28.6961,-5.1877 -20.9267,6.8552 -81.5312,27.8644 -80.6026,27.9417 0.4626,0.039 25.3626,-1.4134 55.3334,-3.2266 z m 196.6394,-12.2184 c 5.4416,-0.7887 6.7896,-1.9154 19.1862,-16.0352 21.8157,-24.8484 21.3329,-24.4746 33.0412,-25.5928 10.931,-1.0442 11.2125,-1.2324 19.7114,-13.1756 8.881,-12.4803 10.6912,-35.676 3.0142,-38.622 -4.0179,-1.5418 -168.5563,54.22 -167.241,56.6777 11.927,22.2856 60.0008,41.428 92.288,36.7479 z m -798.8138,-13.025 c 0,-0.2969 -2.85,-2.1917 -6.3334,-4.2105 -3.4833,-2.0188 -13.4061,-8.3924 -22.0508,-14.1635 -15.7173,-10.493 -15.7173,-10.493 -53.7842,-9.575 -20.9368,0.5049 -37.2538,1.373 -36.2599,1.9293 6.9416,3.8847 118.4283,28.3793 118.4283,26.0197 z m 692.8845,-64.1557 c 16.6483,-3.3891 62.9112,-14.7409 76.3993,-18.7464 9.0483,-2.6871 13.3828,-12.3223 13.3828,-29.7485 0,-10.5434 -17.0492,-10.0098 -33.3086,1.0425 -29.8066,20.2604 -59.423,35.9571 -70.1188,37.1625 -5.2403,0.5907 -7.3412,1.8068 -13.7138,7.938 -7.5254,7.2406 -7.5254,7.2406 1.3591,6.5384 4.8864,-0.3862 16.5864,-2.2701 26,-4.1865 z m -52.2179,-42.0535 c 39.345,-19.2109 98.7722,-54.2565 96.2611,-56.7674 -2.4581,-2.4582 -42.6495,2.6686 -56.6356,7.2244 -15.0413,4.8993 -15.0413,4.8993 -18.4056,12.2625 -10.2268,22.3824 -27.4548,26.2395 -47.9808,10.7421 -6.8811,-5.1952 -6.8811,-5.1952 -13.7129,-0.5942 -15.1862,10.2269 -15.9215,23.0668 -2.1635,37.7753 7.3219,7.8276 2.1815,9.1107 42.6373,-10.6427 z m 194,1.5006 c 7.3334,-2.8663 7.3334,-2.8663 7.3334,-17.8088 0,-13.8463 0.31,-15.6554 4.2248,-24.6591 4.2249,-9.7165 4.2249,-9.7165 0.5454,-20.6667 -4.4572,-13.2649 -1.9238,-13.6341 -24.7096,3.6018 -18.9392,14.3262 -18.9392,14.3262 -17.9126,20.5538 1.6966,10.2948 1.2714,32.3651 -0.788,40.8943 -1.0624,4.4 -1.9531,8.4103 -1.9792,8.9117 -0.048,0.9151 19.5708,-5.4662 33.2858,-10.827 z m -262.6666,-22.0874 c 0,-8.8988 26.9484,-27.9157 52,-36.6953 17.1697,-6.0175 59.9994,-22.4903 60.0002,-23.0769 3e-4,-0.124 -7.3916,-0.016 -16.4262,0.2388 -12.0571,0.3404 -19.4167,-0.1616 -27.667,-1.8872 -32.1629,-6.7271 -54.5892,-1.3768 -70.4642,16.8106 -4.5155,5.1731 -9.5823,9.3688 -13.5136,11.1903 -6.2898,2.914 -6.2898,2.914 -1.7235,6.0428 5.4541,3.7372 12.4609,12.2688 12.4609,15.1725 0,4.7583 2.9843,15.5015 4.1124,14.8043 0.6716,-0.4151 1.221,-1.5849 1.221,-2.5999 z m 336.7134,-17.9114 c 14.0188,-11.4808 17.2248,-16.5358 30.0746,-47.4192 7.212,-17.3334 7.212,-17.3334 7.9568,6.6666 0.4097,13.2 0.8597,24.2267 1,24.5038 0.8128,1.6046 13.9228,-2.4638 41.6244,-12.9168 118.4413,-44.6936 194.0381,-89.1034 220.5122,-129.5411 9.3759,-14.3212 9.5895,-15.3773 12.145,-60.0459 2.5946,-45.3561 1.9904,-43.1098 13.0818,-48.637 19.262,-9.5987 33.5084,2.1101 36.6263,30.1025 0.9321,8.3688 0.9321,8.3688 76.9321,-78.1116 98.0684,-111.592 92.5618,-103.7155 90.7778,-129.8435 -2.697,-39.4997 20.7865,-55.5733 39.2212,-26.8454 2.567,4.0005 4.8834,6.2994 5.8034,5.7596 8.1487,-4.7824 8.1976,-4.1499 -0.835,-10.7979 -10.797,-7.9467 -21.6454,-18.2516 -25.102,-23.8447 -2.7495,-4.4486 -2.7495,-4.4486 -21.2438,-4.4486 -18.4941,0 -18.4941,0 -27.4065,-7.9115 -13.6127,-12.0836 -23.2151,-24.5159 -23.2151,-30.0565 0,-1.8968 -0.3814,-1.9032 -3.9337,-0.067 -5.4495,2.818 -13.7468,2.5936 -17.5355,-0.4743 -2.7196,-2.2022 -4.7382,-2.4249 -16.5309,-1.823 -20.1767,1.0298 -25.7381,-0.9775 -40.0448,-14.4536 -12.6368,-11.9031 -22.1725,-17.1818 -31.0744,-17.2018 -18.3375,-0.041 -71.4611,-29.8349 -94.7849,-53.1588 -12.4928,-12.4926 -28.0902,-36.8253 -28.0947,-43.8288 0,-3.4125 -11.8081,-4.5334 -18.51,-1.7574 -8.6104,3.5665 -12.8285,17.7849 -10.6995,36.0653 2.2567,19.3751 7.9834,155.3963 7.438,176.6667 -1.2518,48.828 -20.911,86.357 -57.4809,109.73 -11.6679,7.4572 -31.4153,21.8774 -31.4153,22.9404 0,0.4336 2.2812,3.016 5.0693,5.7385 5.0693,4.9501 5.0693,4.9501 19.9944,-13.6995 16.7208,-20.8934 21.2205,-24.2224 32.8829,-24.3272 17.294,-0.1553 22.2064,13.9644 13.5142,38.8439 -2.9684,8.4961 -7.6375,14.7765 -52.7175,70.9113 -27.2033,33.8744 -49.116,61.9343 -48.6951,62.3552 0.4211,0.4211 16.5875,0.7824 35.9254,0.8031 40.8456,0.044 42.0369,0.3595 43.4209,11.508 0.4003,3.2245 1.4503,7.1735 2.3333,8.7753 2.9104,5.2795 2.0014,14.4126 -1.8956,19.0438 -9.8388,11.6926 -30.307,15.878 -95.0742,19.4402 -39.2118,2.1567 -39.2118,2.1567 -68.004,25.7135 -15.8358,12.9563 -34.9051,28.3568 -42.3763,34.2235 -15.8209,12.4233 -15.1052,10.0124 -7.7185,26 3.2188,6.9666 8.7373,21.5054 12.2633,32.3085 3.5259,10.8031 6.7133,19.6531 7.0831,19.6667 0.3697,0.013 4.2882,-2.9366 8.7078,-6.556 z m -400.1172,0.3737 c 5.8552,-0.7257 7.2607,-1.5273 10.7371,-6.1227 3.2521,-4.2988 6.8807,-7.1826 12.4323,-9.8802 0.2377,-0.116 -3.0007,-3.5352 -7.1966,-7.5994 -8.7302,-8.4557 -9.8569,-8.3764 -20.7453,1.4606 -10.6773,9.6462 -14.8337,25.5508 -6.2275,23.8296 2.3447,-0.469 7.2947,-1.2286 11,-1.6879 z m 674.6146,-62.912 c 49.0897,-23.4823 132.4622,-78.1032 231.4558,-151.6365 25.2547,-18.7595 35.8002,-25.2402 138.6667,-85.2182 128.5741,-74.967 114.1567,-65.4924 110.8325,-72.835 -1.4584,-3.2219 -2.9226,-6.7751 -3.2537,-7.8962 -0.3312,-1.1212 -14.0219,-10.4068 -30.4237,-20.6349 -40.072,-24.9885 -90.1706,-58.3865 -102.6886,-68.4567 -11.098,-8.9278 -14.7696,-10.8252 -7.2809,-3.7625 6.3833,6.0203 7.5027,9.6711 7.3525,23.9792 -0.259,24.678 3.207,19.5048 -51.2048,76.4245 -49.0422,51.3028 -56.7744,60.4887 -50.9161,60.4887 4.6696,0 11.5851,10.8983 11.5779,18.2457 -0.013,13.2378 -13.2284,22.731 -41.769,30.0043 -10.4406,2.6607 -10.4406,2.6607 -60.5732,53.2573 -76.0424,76.7464 -116.2038,113.614 -165.6854,152.0967 -6.9098,5.3739 -4.0775,4.5479 13.91,-4.0564 z m -424.5442,-19.0596 c 0,-1.7443 -4.0929,0.5964 -7.3482,4.2024 -2.6518,2.9375 -2.6518,2.9375 2.3482,-0.013 2.75,-1.6202 5,-3.5075 5,-4.1943 z m 32,-32.8816 c 0,-0.5831 51.5127,-55.6331 114.4726,-122.3333 62.9598,-66.7002 114.2913,-121.4916 114.0698,-121.7588 -0.9633,-1.1618 -30.7818,15.7348 -47.8757,27.1286 -63.8804,42.5788 -121.8111,105.8562 -161.7611,176.6904 -5.17,9.1667 -12.6893,21.8831 -16.7098,28.2588 -6.7442,10.6948 -7.2007,12.5478 -3.1958,12.9694 0.55,0.057 1,-0.3719 1,-0.9551 z m 117.3248,-43.6821 c 37.8494,-31.4579 67.6547,-60.7534 85.569,-84.1052 13.7476,-17.9204 14.031,-18.6619 14.9676,-39.1524 0.8228,-18 0.8228,-18 -10.7292,-6 -33.92,35.2357 -101.3346,121.104 -119.8575,152.6666 -1.4249,2.428 4.7711,-2.3986 30.0501,-23.409 z m 520.5968,-858.1562 c 9.4526,-3.7257 57.1992,-33.269 99.4118,-61.5112 44.3868,-29.6968 67.165,-86.6013 49.0128,-122.4436 -15.2675,-30.1462 -53.3338,-71.994 -113.7098,-125.006 -53.9658,-47.3834 -109.6854,-104.9461 -108.316,-111.8985 1.6772,-8.5144 5.7644,-6.9831 36.1339,13.5379 66.3107,44.8065 82.3132,45.3506 124.098,4.2193 24.4828,-24.1001 24.5523,-25.8152 1.7811,-43.9889 -45.0372,-35.9443 -74.3775,-55.5683 -81.6667,-54.622 -46.7679,6.0714 -136.0245,74.363 -158.0429,120.9209 -24.3618,51.5129 -0.4004,90.1685 120.0429,193.6587 81.0612,69.6513 93.0191,83.4205 87.7424,101.0328 -2.6889,8.9748 -2.3335,9.1024 -41.0757,-14.7496 -48.6848,-29.9734 -77.0386,-36.7104 -108.6467,-25.8155 -26.2299,9.0409 -56.8397,32.0003 -70.1787,52.6383 -6.1709,9.5476 -6.667,8.8858 10.1587,13.547 54.6345,15.1352 103.8039,38.2023 130.6667,61.3004 4.6589,4.006 10.921,3.7788 22.5882,-0.82 z m -325.2613,-10.9556 c 26.8231,-17.6384 71.6924,-51.8481 81.1099,-61.8408 3.7702,-4.0004 3.7702,-4.0004 -21.3334,-20.9888 -73.0001,-49.4017 -112.4368,-84.4413 -112.4368,-99.9008 0,-6.5192 20.7743,-24.4912 77.4484,-67.0014 61.7208,-46.2956 85.6118,-69.7812 91.533,-89.9806 3.2925,-11.2318 -7.8368,-27.1637 -68.3147,-97.7936 -47.4117,-55.3705 -44.6127,-53.0725 -57.0631,-46.8501 -31.4886,15.7373 -119.425,96.2797 -143.3206,131.27 -36.5351,53.4981 -52.5848,103.2221 -46.8598,145.1771 10.858,79.5706 62.9108,152.183 146.5522,204.4368 28.543,17.8318 30.638,17.9698 52.6849,3.4722 z m -82.6603,-232.5516 c -11.568,-7.3624 -19.1096,-27.5101 -21.9812,-58.7236 -2.1454,-23.3202 2.4446,-43.3685 18.9732,-82.8706 10.4399,-24.9506 14.8479,-22.0088 61.9342,41.3333 30.5797,41.1371 30.489,39.5945 3.8177,64.9796 -32.4965,30.9292 -52.1861,42.0008 -62.7439,35.2813 z m -202.3744,227.6435 c 31.1922,-13.7428 54.8392,-27.314 56.8858,-32.6469 0.5204,-1.3564 -2.7495,-5.8058 -9.6531,-13.135 -18.8264,-19.9869 -16.8059,6.845 -17.2041,-228.4558 -0.346,-204.3334 -0.346,-204.3334 -73,-204.3334 -72.6542,0 -72.6542,0 -72.6542,170.5655 0,170.5656 0,170.5656 16.4506,196.3333 44.9714,70.4427 77.7249,119.7679 79.5297,119.7679 0.6989,0 9.5393,-3.6429 19.6453,-8.0956 z m -123.5394,-61.4019 c 6.5805,-2.8309 6.5805,-2.8309 6.5805,-39.1566 0,-36.3259 0,-36.3259 -25,-76.0626 -25,-39.7366 -25,-39.7366 -25.3824,22.8234 -0.4731,77.4204 -0.9841,74.6584 15.9773,86.3402 13.0431,8.9831 18.3398,10.1359 27.8246,6.0556 z m -47.391,-351.2545 c -4.952,-21.3523 -23.9677,-47.0015 -50.7858,-68.5016 -19.3152,-15.4851 -21.0058,-14.8547 -64.576,24.0773 -7.7,6.8803 -15.7114,13.8442 -17.8028,15.4754 -4.4048,3.435 -5.723,0.8834 11.2896,21.8526 16.4957,20.332 33.0029,45.236 43.2761,65.2896 4.2205,8.2384 38.9504,65.3975 72.0284,118.5456 7.8753,12.6538 7.8753,12.6538 8.218,-77.7518 0.2893,-76.3162 0.032,-91.7431 -1.6475,-98.9871 z m 1023.2931,-34.0781 c 19.4775,-9.4554 44.3499,-39.8266 68.1116,-83.1699 9.5579,-17.4344 12.5464,-21.6249 23.2968,-32.6667 19.9529,-20.494 21.9184,-28.7717 9.0223,-38 -4.0992,-2.9333 -17.1204,-14.6716 -28.936,-26.0851 -31.5072,-30.435 -37.0854,-33.7642 -56.3751,-33.6459 -17.7537,0.109 -21.8872,2.3792 -23.7849,13.0644 -2.3104,13.0079 -6.6128,20.0054 -21.352,34.7266 -27.237,27.2039 -26.3518,37.8391 4.9248,59.1663 25.9512,17.696 25.7482,21.1528 -4.1027,69.8692 -16.7579,27.3487 -16.8491,30.296 -1.1821,38.2136 10.324,5.2175 17.2918,4.8797 30.3773,-1.4725 z m -2194.6549,918.3753 c 0,-299.0281 0.9414,-273.1359 -10.4796,-288.2225 -8.0966,-10.6955 -7.9652,-10.0086 -2.512,-13.1379 40.8578,-23.4464 130.955,-70.1848 135.2948,-70.1848 10.8567,0 26.9259,17.0725 46.2375,49.1244 20.5132,34.046 26.3241,35.3764 68.1259,15.5975 10.3792,-4.9111 113.1775,-59.7484 132.7647,-70.8228 3.7868,-2.141 44.5839,19.8928 61.902,33.432 124.4208,97.2712 149.1327,268.3545 60.5009,418.8561 -13.7385,23.3289 -30.5061,43.5541 -58.9833,71.1461 -11.7313,11.3667 -29.172,28.5007 -38.7569,38.0756 -11.3202,11.3082 -22.999,21.3542 -33.3262,28.6667 -37.4786,26.5383 -38.8608,32.1784 -6.5584,26.7636 39.8663,-6.6829 94.3776,-20.9867 128.0187,-33.5921 35.3175,-13.2336 36.4385,-12.3902 36.4385,27.4196 0,34 0,34 -124.6666,34 -124.6667,0 -124.6667,0 -124.6667,-6.1768 0,-6.1022 0.1839,-6.3596 15.1785,-21.2572 88.8723,-88.2972 123.3274,-221.7988 85.4871,-331.2327 -32.3849,-93.6571 -125.7224,-184.794 -167.879,-163.9212 -10.4212,5.1599 -9.41,-22.2803 -9.8033,266.0188 -0.35,256.5691 -0.35,256.5691 -96.3333,256.5691 -95.9833,0 -95.9833,0 -95.9833,-267.1215 z m 1018.6666,260.9688 c -24.0358,-20.5757 -57.0261,-37.4013 -101.77,-51.9043 -12.9598,-4.2006 -23.5577,-8.3064 -23.5508,-9.1237 0.06,-7.0939 18.5371,-28.5244 35.8879,-41.6237 41.6109,-31.4152 73.0867,-29.61 128.0996,7.3464 15.9585,10.7206 31.124,20.1246 32.4543,20.1246 2.4221,0 3.8477,-10.8257 2.2002,-16.7098 -4.4094,-15.7492 -14.414,-26.5152 -89.0008,-95.7754 -95.7065,-88.8713 -116.2826,-127.8213 -93.7624,-177.4886 19.3856,-42.7543 100.5595,-108.9615 139.1543,-113.4976 7.8775,-0.9259 23.0427,9.6973 70.9396,49.6933 24.0753,20.104 24.0531,21.7768 -0.6321,47.5521 -35.9527,37.5406 -52.1487,36.6191 -110.255,-6.2729 -24.5916,-18.1525 -29.7648,-20.3577 -29.7648,-12.6879 0,6.8414 35.214,46.0423 92.6923,103.1868 106.3923,105.7746 121.0315,130.4542 105.3019,177.5246 -11.5752,34.6382 -24.1859,49.1105 -71.4075,81.9485 -68.2957,47.4929 -72.8425,49.4731 -86.5867,37.7076 z m 280.2756,2.2417 c -13.5688,-6.3456 -34.8949,-32.9821 -40.2262,-50.243 -2.6788,-8.6731 -2.716,-11.4054 -2.716,-199.3198 0,-190.5262 0,-190.5262 -27.3334,-190.5262 -27.3333,0 -27.3333,0 -27.3333,-20.6667 0,-20.6667 0,-20.6667 6.4317,-20.6667 56.4814,0 133.7168,-52.7993 154.4176,-105.5622 3.572,-9.1044 3.572,-9.1044 10.028,-9.1044 6.456,0 6.456,0 6.456,46.5798 0,55.7922 0.2236,56.6806 16.3334,64.9003 6.3333,3.2315 6.3333,3.2315 6.3333,23.8756 0,20.6443 0,20.6443 -10.0293,20.6443 -10.0294,0 -10.0294,0 -9.6667,171 0.4145,195.4862 -1.2635,172.2612 14.3799,199.0293 11.7792,20.1563 11.5654,20.4631 -32.6703,46.9061 -39.3764,23.5382 -53.062,28.4582 -64.4047,23.1536 z m -572.0625,-2.0965 c -44.9987,-20.9481 -99.3052,-76.1284 -124.0969,-126.0935 -39.0035,-78.6072 -34.7802,-138.956 15.4014,-220.0806 C 1761.0425,2299.3765 1856.8824,2208 1873.7097,2208 c 3.6458,0 20.409,19.938 68.6291,81.6264 11.8332,15.1385 29.5999,40.9795 33.5848,48.8481 9.3217,18.4066 -12.6195,44.829 -87.2569,105.0776 -32.604,26.3187 -55.3379,46.6498 -59.2614,52.9982 -7.9993,12.943 24.9531,46.4816 98.2614,100.0093 11.9166,8.7013 21.6666,16.2757 21.6666,16.832 0,3.6064 -59.0157,52.4944 -80.5674,66.7413 -13.5819,8.9783 -13.6343,8.9886 -23.2195,4.5263 z m -28.8081,-233.28 c 12.3798,-6.1708 50.0902,-42.0361 54.9798,-52.2899 3.1707,-6.6486 -4.8278,-20.7404 -36.1886,-63.756 -30.6735,-42.073 -30.1696,-42.1946 -47.2499,11.3976 -9.4633,29.6927 -10.1539,48.8862 -2.7991,77.8047 6.7,26.3437 16.0874,34.4055 31.2578,26.8436 z m 53.141,-323.4953 c -44.0274,-3.9331 -92.0266,-23.3922 -95.9149,-38.8843 -3.9575,-15.7681 36.0109,-49.5363 60.7023,-51.2856 8.6666,-0.614 8.6666,-0.614 14.6666,7.0051 18.6894,23.7324 42.3888,41.9489 60.6135,46.5904 50.1987,12.7845 108.7997,-32.8567 89.4543,-69.6712 -12.0824,-22.9928 -67.3112,-89.3055 -79.816,-95.8342 -6.3699,-3.3257 -17.8632,1.7172 -46.2431,20.2906 -48.9901,32.0614 -62.764,29.463 -106.6753,-20.1244 -142.4502,-160.8638 -110.2826,-278.9808 117.3333,-430.8392 21.8421,-14.5724 41.1249,-26.3186 48.524,-29.5586 9.4609,-4.1429 118.5315,86.5964 129.4345,107.6807 1.8003,3.4813 2.0452,23.4488 2.0731,169.0139 0.036,189.1437 -1.5335,168.0013 14.2871,192.4232 35.7474,55.1822 20.0809,101.2102 -50.4898,148.338 -39.396,26.3089 -79.7404,41.2589 -121.2588,44.9337 -16.846,1.4909 -19.1816,1.486 -36.6908,-0.079 z m 40.7874,-391.8226 c 0,-137.2721 0,-137.2721 -12.5507,-151.7902 -39.2769,-45.434 -52.9891,-45.8002 -73.6445,-1.9667 -36.521,77.5021 -29.7906,141.8372 23.7248,226.7815 19.6588,31.2042 51.2085,64.2474 61.3437,64.2474 0.6197,0 1.1267,-61.7724 1.1267,-137.272 z m -747.0734,242.5355 c -59.0709,-6.1328 -136.991,-43.8324 -175.94634,-85.1272 -38.37007,-40.6743 -47.25152,-78.3685 -38.36004,-162.8057 2.27736,-21.6268 2.08069,-23.1875 -3.62025,-28.7292 -5.98332,-5.8164 -23.13091,-14.328 -45,-22.3368 -25.9087,-9.4883 -38.15658,-16.8172 -52.75364,-31.567 -8.75366,-8.8452 -8.75366,-8.8452 -15.66667,-3.7248 -6.91303,5.1204 -6.91303,5.1204 -6.91303,165.0739 0,159.9533 0,159.9533 -113.33333,159.9533 -113.33333,0 -113.33333,0 -113.36261,-319 -0.0288,-313.139 -0.0769,-319.105 -2.62324,-324.7152 -1.42667,-3.1434 -6.25395,-10.7528 -10.72727,-16.9098 -7.92557,-10.9085 -9.01525,-18.0416 -2.75612,-18.0416 0.48991,0 14.07091,1.7671 30.17999,3.9269 95.41816,12.7931 116.33008,14.3363 156.37032,11.5392 178.74338,-12.4866 281.85483,-4.6137 344.91893,26.3357 56.5771,27.7659 127.6479,101.6575 138.6054,144.107 13.1934,51.1113 -9.5075,110.6657 -55.9387,146.7521 -23.7312,18.4439 -32.8731,22.8973 -84,40.9201 -61.2619,21.5954 -88.6667,31.823 -88.6667,33.0906 0,3.576 42.8645,21.7153 94.6667,40.0609 38.2879,13.5596 56,22.0557 56,26.8621 0,0.8024 -3.5999,8.7219 -7.9998,17.5988 -21.0016,42.3716 -19.8445,89.6282 2.9168,119.1311 19.5254,25.3085 64.7864,40.3421 121.4567,40.3421 16.0191,0 15.574,1.9264 -2.6894,11.6391 -37.9377,20.1756 -84.7093,29.7823 -124.7577,25.6244 z M 954.10455,1646.1204 c 35.38574,-11.2525 58.97395,-45.6792 68.70275,-100.2705 20.5766,-115.4623 -30.01118,-209.8094 -112.82379,-210.4184 -24.97907,-0.1836 -62.37912,23.5116 -72.57115,45.9785 -2.62017,5.7757 -2.68785,8.538 -2.71641,110.8605 -0.0345,123.5807 -0.76735,117.6176 12.87129,104.7295 15.52915,-14.6747 58.20155,-7.1893 63.11877,11.0719 2.60258,9.6652 -0.60933,15.4586 -13.01934,23.4836 -8.0549,5.2086 -9.80964,11.27 -4,13.8169 13.19488,5.7847 43.42264,6.1588 60.43788,0.748 z m 498.79315,321.2779 c -11.9692,-4.2239 -21.0858,-10.4128 -79.5148,-53.979 -62.7098,-46.7581 -94.0062,-105.1392 -94.0372,-175.4193 -0.034,-76.5816 23.3707,-116.0193 137.1602,-231.1216 40.4318,-40.8983 48.9661,-46.9223 58.9624,-41.6192 16.5038,8.7552 82.1961,67.0988 106.2693,94.3813 78.9129,89.4338 86.7048,203.3575 19.4488,284.3595 -52.4672,63.1908 -101.0749,111.6568 -123.066,122.7072 -9.4991,4.7732 -13.3556,4.8789 -25.2227,0.6911 z m 85.6815,-106.9487 c 18.4728,-20.9863 10.3176,-90.5515 -17.2131,-146.8291 -38.282,-78.2557 -108.5381,-144.8644 -135.4728,-128.4396 -17.6482,10.7619 -18.717,82.1495 -1.9778,132.1124 15.4054,45.9824 43.868,76.124 128.0845,135.6407 22.7079,16.0477 19.7941,15.2239 26.5792,7.5156 z"
       id="path116" />
  </g>
</svg>
